<svg width="100" height="100" xmlns="http://www.w3.org/2000/svg" xml:space="preserve" enable-background="new 0 0 100 100" version="1.1" fill="{{COLOR}}">

 <g>
  <title>Layer 1</title>
  <g id="svg_1">
   <path id="svg_2" d="m3.455,59.074c0.542,-28.037 29.897,-48.404 62.312,-51.121c7.893,-0.659 21.247,-0.844 31.131,2.25l-9.352,17.253c-6.528,-1.661 -14.235,-2.134 -21.918,-1.797c-33.064,1.144 -53.872,20.544 -54.336,40.159c-0.244,10.416 4.785,20.447 14.77,26.248l-0.652,0.557c-14.492,-7.212 -22.25,-18.559 -21.955,-33.549z"/>
   <path id="svg_3" d="m18.844,65.656c3.279,-16.372 21.514,-28.878 50.168,-27.383c3.968,0.209 8.473,0.598 12.494,1.479l-8.283,15.273c-2.578,-0.354 -6.603,-1.071 -10.058,-1.257c-22.575,-1.181 -36.465,8.159 -38.769,20.069c-1.237,6.395 1.385,13.541 7.928,18.034l-0.656,0.504c-11.204,-6.2 -14.833,-16.71 -12.824,-26.719z"/>
   <path id="svg_4" d="m32.375,73.946c5.484,-9.222 22.011,-12.208 36.767,-8.624l-4.326,7.93c-11.73,-2.699 -25.31,-0.866 -29.202,5.896c-2.116,3.68 -0.936,8.737 1.454,12.306l-0.438,0.441c-5.517,-4.935 -7.524,-12.447 -4.255,-17.949z"/>
  </g>
 </g>
</svg>